<svg width="167" height="41" viewBox="0 0 167 41" fill="none" xmlns="http://www.w3.org/2000/svg">
<path d="M0 18.0112C0.513405 18.0112 0.912719 17.8543 1.19794 17.5406C1.48317 17.2268 1.61152 16.799 1.61152 16.2286V6.3745C1.61152 4.34949 2.18197 2.78082 3.33713 1.66849C4.49229 0.556164 6.10381 0 8.18595 0V4.6347C7.57272 4.6347 7.1021 4.80583 6.75983 5.16235C6.41756 5.51886 6.24642 6.00372 6.24642 6.63119V16.5708C6.24642 18.2821 5.7045 19.6226 4.62064 20.5638C3.53679 21.505 1.99657 21.9756 0.014261 21.9756V18.0112H0ZM3.35139 38.9172C2.19623 37.8049 1.62578 36.222 1.62578 34.197V24.3571C1.62578 23.801 1.48317 23.3589 1.21221 23.0452C0.926981 22.7314 0.527666 22.5746 0.014261 22.5746V18.6386C1.99657 18.6386 3.53679 19.1235 4.62064 20.1075C5.7045 21.0772 6.24642 22.4747 6.24642 24.2858V33.9545C6.24642 34.5963 6.41756 35.0811 6.75983 35.4376C7.1021 35.7942 7.58698 35.9653 8.18595 35.9653V40.6C6.11807 40.5857 4.49229 40.0296 3.35139 38.9172Z" fill="white"/>
<path d="M13.7336 32.9278H10.9241V4.57766H13.7336V32.9278Z" fill="white"/>
<path d="M18.0405 4.57766H20.6788L29.6634 27.851L29.1928 28.3644V4.57766H31.9595V32.9135H29.2926L20.3365 9.62592L20.8072 9.11254V32.8993H18.0405V4.57766Z" fill="white"/>
<path d="M33.9133 4.57766H47.6754V7.18735H33.9133V4.57766ZM39.3896 6.90214H42.199V32.9278H39.3896V6.90214Z" fill="white"/>
<path d="M49.6291 4.5634H52.4386V32.9278H49.6291V4.5634ZM51.3547 18.3249H56.6029C57.4443 18.3249 58.1716 18.168 58.7706 17.8543C59.3696 17.5406 59.8402 17.0842 60.1539 16.4853C60.4677 15.8863 60.6245 15.159 60.6245 14.3177V11.3942C60.6245 10.5101 60.4677 9.75427 60.1539 9.1268C59.8402 8.49933 59.3696 8.01447 58.7706 7.68648C58.1716 7.35848 57.4443 7.18735 56.6029 7.18735H51.3547V4.5634H56.4032C57.8864 4.5634 59.1556 4.82009 60.211 5.31921C61.2663 5.81834 62.0649 6.55989 62.6211 7.51535C63.1773 8.48507 63.4483 9.64018 63.4483 10.9949V14.3034C63.4483 15.7009 63.1773 16.8846 62.6211 17.8828C62.0649 18.8811 61.2663 19.6369 60.211 20.1503C59.1556 20.6636 57.8864 20.9346 56.4032 20.9346H51.3547V18.3249ZM57.2304 20.0647L59.7261 19.1663L64.2469 32.9278H60.9953L57.2304 20.0647Z" fill="white"/>
<path d="M70.8926 32.3859C69.8373 31.8297 69.0387 31.0169 68.4825 29.9473C67.9263 28.8778 67.6553 27.5943 67.6553 26.0827V11.4228C67.6553 9.91114 67.9263 8.62768 68.4825 7.55814C69.0387 6.48859 69.8373 5.67573 70.8926 5.11957C71.948 4.5634 73.2172 4.27819 74.7004 4.27819C76.1836 4.27819 77.4528 4.5634 78.5081 5.11957C79.5635 5.67573 80.3621 6.48859 80.9183 7.55814C81.4745 8.62768 81.7454 9.91114 81.7454 11.4228V26.0827C81.7454 27.5943 81.4745 28.8778 80.9183 29.9473C80.3621 31.0169 79.5635 31.8297 78.5081 32.3859C77.4528 32.942 76.1836 33.2273 74.7004 33.2273C73.2172 33.2273 71.948 32.942 70.8926 32.3859ZM76.9964 29.9758C77.6239 29.6478 78.1088 29.163 78.4368 28.5213C78.7648 27.8795 78.936 27.1237 78.936 26.2253V11.2944C78.936 10.396 78.7648 9.62593 78.4368 8.99846C78.1088 8.35673 77.6239 7.87187 76.9964 7.54387C76.3689 7.21588 75.5988 7.04475 74.7004 7.04475C73.8019 7.04475 73.0461 7.21588 72.4043 7.54387C71.7768 7.87187 71.2919 8.35673 70.9639 8.99846C70.6359 9.64019 70.4648 10.396 70.4648 11.2944V26.2253C70.4648 27.1237 70.6359 27.8938 70.9639 28.5213C71.2919 29.163 71.7768 29.6478 72.4043 29.9758C73.0318 30.3038 73.8019 30.475 74.7004 30.475C75.5988 30.475 76.3547 30.3038 76.9964 29.9758Z" fill="white"/>
<path d="M88.5623 32.3716C87.5498 31.8012 86.7654 30.9883 86.2378 29.9045C85.6958 28.8207 85.4249 27.523 85.4249 26.0114V11.5083C85.4249 9.98244 85.6958 8.68472 86.2378 7.61517C86.7797 6.53137 87.5498 5.71851 88.5623 5.14809C89.5749 4.57766 90.8014 4.30671 92.2275 4.30671C93.6536 4.30671 94.8801 4.59192 95.9069 5.14809C96.9337 5.71851 97.7038 6.54563 98.2315 7.62944C98.7591 8.71324 99.0301 10.011 99.0301 11.5368V13.8185H94.1385V11.5368C94.1385 11.052 94.0672 10.6384 93.9246 10.2819C93.782 9.9254 93.568 9.65444 93.2685 9.46905C92.9691 9.28367 92.6268 9.18384 92.2275 9.18384C91.8424 9.18384 91.5002 9.26941 91.2149 9.45479C90.9297 9.64018 90.7158 9.89687 90.5589 10.2534C90.4163 10.6099 90.3307 11.0235 90.3307 11.5083V26.0114C90.3307 26.4962 90.402 26.9098 90.5589 27.2521C90.7015 27.5943 90.9297 27.8653 91.2149 28.0364C91.5002 28.2218 91.8424 28.3073 92.2275 28.3073C92.6411 28.3073 92.9976 28.2218 93.2828 28.0364C93.568 27.851 93.782 27.5943 93.9246 27.2521C94.0672 26.9098 94.1385 26.482 94.1385 25.9971V23.7154H99.0301V25.9971C99.0301 27.523 98.7591 28.8207 98.2315 29.9045C97.7038 30.9883 96.9194 31.8155 95.9069 32.3859C94.8801 32.9563 93.6679 33.2273 92.2275 33.2273C90.8014 33.2273 89.5749 32.942 88.5623 32.3716Z" fill="white"/>
<path d="M105.462 32.4287C104.378 31.901 103.551 31.1452 102.98 30.147C102.41 29.1487 102.125 27.9508 102.125 26.5533V10.9522C102.125 9.55462 102.41 8.34247 102.98 7.34423C103.551 6.34598 104.378 5.59017 105.462 5.06252C106.546 4.54914 107.844 4.27819 109.369 4.27819C110.895 4.27819 112.193 4.53488 113.277 5.06252C114.361 5.57591 115.188 6.34598 115.759 7.34423C116.329 8.34247 116.614 9.54036 116.614 10.9522V26.5533C116.614 27.9508 116.329 29.163 115.759 30.147C115.188 31.1452 114.361 31.901 113.277 32.4287C112.193 32.9563 110.895 33.213 109.369 33.213C107.844 33.213 106.546 32.9563 105.462 32.4287ZM110.639 28.0934C110.995 27.8938 111.266 27.6228 111.452 27.2521C111.637 26.8813 111.723 26.4392 111.723 25.9258V11.5368C111.723 11.0235 111.637 10.5956 111.452 10.2249C111.266 9.85409 110.995 9.58314 110.639 9.38349C110.282 9.18385 109.854 9.08402 109.355 9.08402C108.856 9.08402 108.442 9.18385 108.086 9.38349C107.729 9.58314 107.473 9.85409 107.287 10.2249C107.102 10.5956 107.016 11.0235 107.016 11.5368V25.9258C107.016 26.4392 107.102 26.8813 107.287 27.2521C107.473 27.6228 107.729 27.8938 108.086 28.0934C108.442 28.2931 108.856 28.3929 109.355 28.3929C109.854 28.3929 110.282 28.2931 110.639 28.0934Z" fill="white"/>
<path d="M134.241 4.57766H138.762V32.9278H134.455V13.134L134.754 14.389L130.647 27.9223H128.223L124.116 14.7883L124.501 13.1483V32.942H120.094V4.57766H124.729L129.421 19.9791L134.241 4.57766Z" fill="white"/>
<path d="M142.242 4.57766H147.076V32.9278H142.242V4.57766ZM144.495 17.2981H149.501C149.886 17.2981 150.228 17.2126 150.513 17.0272C150.798 16.8418 151.027 16.5851 151.169 16.2286C151.312 15.8721 151.397 15.4585 151.397 14.9737V11.6367C151.397 11.1233 151.326 10.6955 151.169 10.3247C151.027 9.95391 150.798 9.68296 150.513 9.49757C150.228 9.31219 149.886 9.21236 149.486 9.21236H144.481V4.57766H149.629C151.027 4.57766 152.239 4.82009 153.237 5.31921C154.235 5.81833 154.991 6.53137 155.519 7.48683C156.032 8.44229 156.303 9.58314 156.303 10.9236V15.7009C156.303 17.0129 156.047 18.1395 155.519 19.0665C154.991 19.9934 154.235 20.7064 153.223 21.1913C152.225 21.6761 151.027 21.9186 149.629 21.9186H144.481V17.2981H144.495Z" fill="white"/>
<path d="M161.908 20.5353C160.81 19.5941 160.268 18.2679 160.268 16.5708V6.63119C160.268 5.98946 160.097 5.5046 159.754 5.16235C159.412 4.82009 158.927 4.64896 158.328 4.64896V0C160.425 0 162.036 0.556164 163.177 1.66849C164.318 2.78082 164.888 4.34949 164.888 6.3745V16.2143C164.888 16.7705 165.031 17.2126 165.316 17.5263C165.602 17.84 166.001 17.9969 166.5 17.9969V21.9328C164.532 21.9471 163.006 21.4765 161.908 20.5353ZM158.328 35.951C158.942 35.951 159.412 35.7799 159.754 35.4234C160.097 35.0669 160.268 34.582 160.268 33.9403V24.2716C160.268 22.4747 160.81 21.0915 161.894 20.1217C162.977 19.152 164.518 18.6529 166.5 18.6529V22.5888C165.987 22.5888 165.602 22.7457 165.316 23.0594C165.031 23.3732 164.888 23.801 164.888 24.3714V34.197C164.888 36.2362 164.318 37.8192 163.177 38.9315C162.036 40.0438 160.41 40.6 158.328 40.6V35.951Z" fill="white"/>
</svg>
